<svg width="228" height="228" viewBox="0 0 228 228" fill="none" xmlns="http://www.w3.org/2000/svg">
<rect width="228" height="228" fill="#293C70"/>
<path d="M43.9295 189.356C34.4295 189.356 26.3149 185.952 19.5857 179.143C12.8566 172.335 9.33363 164.102 9.01697 154.443C9.01697 153.018 9.09614 151.593 9.25447 150.168C9.4128 148.743 9.6503 147.318 9.96697 145.893L29.917 66.0934C32.1336 57.5434 36.6461 50.6163 43.4545 45.3122C50.2628 40.008 58.0211 37.3559 66.7295 37.3559H159.354C168.063 37.3559 175.821 40.008 182.629 45.3122C189.438 50.6163 193.95 57.5434 196.167 66.0934L216.117 145.893C216.434 147.318 216.711 148.783 216.948 150.287C217.186 151.791 217.304 153.256 217.304 154.681C217.304 164.339 213.861 172.533 206.973 179.262C200.086 185.991 191.813 189.356 182.154 189.356C175.504 189.356 169.329 187.614 163.629 184.131C157.929 180.648 153.654 175.898 150.804 169.881L144.154 156.106C143.363 154.523 142.175 153.335 140.592 152.543C139.009 151.752 137.346 151.356 135.604 151.356H90.4795C88.7378 151.356 87.0753 151.752 85.492 152.543C83.9086 153.335 82.7211 154.523 81.9295 156.106L75.2795 169.881C72.4295 175.898 68.1545 180.648 62.4545 184.131C56.7545 187.614 50.5795 189.356 43.9295 189.356ZM44.642 175.106C48.442 175.106 51.9649 174.077 55.2107 172.018C58.4566 169.96 60.9503 167.189 62.692 163.706L69.342 150.168C71.4003 146.052 74.2899 142.846 78.0107 140.55C81.7315 138.254 85.8878 137.106 90.4795 137.106H135.604C140.196 137.106 144.352 138.293 148.073 140.668C151.794 143.043 154.763 146.21 156.979 150.168L163.629 163.706C165.371 167.189 167.865 169.96 171.111 172.018C174.357 174.077 177.879 175.106 181.679 175.106C187.379 175.106 192.288 173.166 196.404 169.287C200.521 165.408 202.659 160.618 202.817 154.918C202.817 154.285 202.579 152.385 202.104 149.218L182.154 69.6559C180.888 64.4309 178.157 60.1163 173.961 56.7122C169.765 53.308 164.896 51.6059 159.354 51.6059H66.7295C61.1878 51.6059 56.3191 53.2684 52.1232 56.5934C47.9274 59.9184 45.1961 64.2726 43.9295 69.6559L23.9795 149.218C23.8211 149.852 23.5836 151.673 23.267 154.681C23.267 160.381 25.3649 165.21 29.5607 169.168C33.7566 173.127 38.7836 175.106 44.642 175.106ZM127.292 101.481C129.35 101.481 131.052 100.808 132.398 99.4622C133.744 98.1163 134.417 96.4143 134.417 94.3559C134.417 92.2976 133.744 90.5955 132.398 89.2497C131.052 87.9038 129.35 87.2309 127.292 87.2309C125.234 87.2309 123.532 87.9038 122.186 89.2497C120.84 90.5955 120.167 92.2976 120.167 94.3559C120.167 96.4143 120.84 98.1163 122.186 99.4622C123.532 100.808 125.234 101.481 127.292 101.481ZM146.292 82.4809C148.35 82.4809 150.052 81.808 151.398 80.4622C152.744 79.1163 153.417 77.4143 153.417 75.3559C153.417 73.2976 152.744 71.5955 151.398 70.2497C150.052 68.9038 148.35 68.2309 146.292 68.2309C144.234 68.2309 142.532 68.9038 141.186 70.2497C139.84 71.5955 139.167 73.2976 139.167 75.3559C139.167 77.4143 139.84 79.1163 141.186 80.4622C142.532 81.808 144.234 82.4809 146.292 82.4809ZM146.292 120.481C148.35 120.481 150.052 119.808 151.398 118.462C152.744 117.116 153.417 115.414 153.417 113.356C153.417 111.298 152.744 109.596 151.398 108.25C150.052 106.904 148.35 106.231 146.292 106.231C144.234 106.231 142.532 106.904 141.186 108.25C139.84 109.596 139.167 111.298 139.167 113.356C139.167 115.414 139.84 117.116 141.186 118.462C142.532 119.808 144.234 120.481 146.292 120.481ZM165.292 101.481C167.35 101.481 169.052 100.808 170.398 99.4622C171.744 98.1163 172.417 96.4143 172.417 94.3559C172.417 92.2976 171.744 90.5955 170.398 89.2497C169.052 87.9038 167.35 87.2309 165.292 87.2309C163.234 87.2309 161.532 87.9038 160.186 89.2497C158.84 90.5955 158.167 92.2976 158.167 94.3559C158.167 96.4143 158.84 98.1163 160.186 99.4622C161.532 100.808 163.234 101.481 165.292 101.481ZM79.792 116.918C81.5336 116.918 82.9586 116.364 84.067 115.256C85.1753 114.148 85.7295 112.723 85.7295 110.981V100.293H96.417C98.1586 100.293 99.5836 99.7393 100.692 98.6309C101.8 97.5226 102.354 96.0976 102.354 94.3559C102.354 92.6143 101.8 91.1893 100.692 90.0809C99.5836 88.9726 98.1586 88.4184 96.417 88.4184H85.7295V77.7309C85.7295 75.9893 85.1753 74.5643 84.067 73.4559C82.9586 72.3476 81.5336 71.7934 79.792 71.7934C78.0503 71.7934 76.6253 72.3476 75.517 73.4559C74.4086 74.5643 73.8545 75.9893 73.8545 77.7309V88.4184H63.167C61.4253 88.4184 60.0003 88.9726 58.892 90.0809C57.7836 91.1893 57.2295 92.6143 57.2295 94.3559C57.2295 96.0976 57.7836 97.5226 58.892 98.6309C60.0003 99.7393 61.4253 100.293 63.167 100.293H73.8545V110.981C73.8545 112.723 74.4086 114.148 75.517 115.256C76.6253 116.364 78.0503 116.918 79.792 116.918Z" fill="#85B1CA" fill-opacity="0.38"/>
</svg>
