<svg width="470" height="96" viewBox="0 0 470 96" fill="none" xmlns="http://www.w3.org/2000/svg">
<path d="M115.952 29.504C113.136 29.504 110.768 30.016 108.848 31.04C106.928 32.064 105.328 33.504 104.048 35.36C102.832 37.152 101.936 39.328 101.36 41.888C100.848 44.384 100.592 47.168 100.592 50.24C100.592 57.344 101.712 62.592 103.952 65.984C106.192 69.312 109.488 70.976 113.84 70.976C114.544 70.976 115.312 70.944 116.144 70.88C116.976 70.816 117.744 70.72 118.448 70.592V48.896H130.256V78.56C128.848 79.072 126.64 79.648 123.632 80.288C120.688 80.928 117.104 81.248 112.88 81.248C109.168 81.248 105.808 80.608 102.8 79.328C99.856 77.984 97.328 76.032 95.216 73.472C93.104 70.848 91.472 67.616 90.32 63.776C89.168 59.872 88.592 55.36 88.592 50.24C88.592 45.184 89.264 40.736 90.608 36.896C91.952 32.992 93.776 29.728 96.08 27.104C98.384 24.48 101.104 22.528 104.24 21.248C107.376 19.904 110.736 19.232 114.32 19.232C116.624 19.232 118.672 19.424 120.464 19.808C122.32 20.128 123.92 20.512 125.264 20.96C126.608 21.408 127.696 21.888 128.528 22.4C129.424 22.912 130.096 23.296 130.544 23.552L127.472 32.96C126.064 32.064 124.336 31.264 122.288 30.56C120.24 29.856 118.128 29.504 115.952 29.504ZM158.096 71.552C159.376 71.552 160.624 71.552 161.84 71.552C163.056 71.488 164.112 71.392 165.008 71.264V60.896C164.24 60.768 163.312 60.672 162.224 60.608C161.136 60.48 160.144 60.416 159.248 60.416C158.032 60.416 156.848 60.512 155.696 60.704C154.544 60.832 153.52 61.088 152.624 61.472C151.792 61.856 151.12 62.4 150.608 63.104C150.096 63.808 149.84 64.736 149.84 65.888C149.84 67.936 150.608 69.408 152.144 70.304C153.68 71.136 155.664 71.552 158.096 71.552ZM157.04 33.728C160.752 33.728 163.824 34.176 166.256 35.072C168.752 35.904 170.736 37.12 172.208 38.72C173.68 40.256 174.736 42.176 175.376 44.48C176.016 46.72 176.336 49.248 176.336 52.064V78.944C174.608 79.328 172.048 79.776 168.656 80.288C165.264 80.8 161.456 81.056 157.232 81.056C154.352 81.056 151.728 80.8 149.36 80.288C147.056 79.776 145.072 78.944 143.408 77.792C141.744 76.576 140.464 75.04 139.568 73.184C138.672 71.264 138.224 68.928 138.224 66.176C138.224 63.552 138.736 61.344 139.76 59.552C140.784 57.76 142.16 56.32 143.888 55.232C145.616 54.144 147.6 53.376 149.84 52.928C152.08 52.416 154.416 52.16 156.848 52.16C159.92 52.16 162.64 52.416 165.008 52.928V51.488C165.008 49.248 164.304 47.392 162.896 45.92C161.488 44.384 159.056 43.616 155.6 43.616C153.36 43.616 151.184 43.776 149.072 44.096C147.024 44.416 145.36 44.8 144.08 45.248L142.448 35.744C143.92 35.232 146 34.784 148.688 34.4C151.376 33.952 154.16 33.728 157.04 33.728ZM214.928 34.4C217.424 34.4 219.472 34.784 221.072 35.552C222.672 36.32 223.92 37.472 224.816 39.008C225.776 40.544 226.416 42.496 226.736 44.864C227.056 47.168 227.216 49.888 227.216 53.024V80H217.616V52.448C217.616 50.656 217.488 49.216 217.232 48.128C217.04 47.04 216.752 46.208 216.368 45.632C216.048 45.056 215.632 44.672 215.12 44.48C214.672 44.288 214.192 44.192 213.68 44.192C213.104 44.192 212.496 44.256 211.856 44.384C211.216 44.448 210.64 44.608 210.128 44.864C210.32 46.08 210.48 47.424 210.608 48.896C210.736 50.368 210.8 52 210.8 53.792V62.816H201.2V52.448C201.2 49.376 200.88 47.232 200.24 46.016C199.664 44.8 198.704 44.192 197.36 44.192C196.976 44.192 196.496 44.224 195.92 44.288C195.408 44.352 194.896 44.448 194.384 44.576V80H184.784V36.608C187.28 35.904 189.744 35.36 192.176 34.976C194.608 34.592 196.752 34.4 198.608 34.4C200.272 34.4 201.744 34.624 203.024 35.072C204.368 35.456 205.52 36.128 206.48 37.088C207.568 36.384 208.848 35.776 210.32 35.264C211.792 34.688 213.328 34.4 214.928 34.4ZM232.976 57.824C232.976 53.856 233.584 50.368 234.8 47.36C236.016 44.352 237.616 41.856 239.6 39.872C241.584 37.824 243.856 36.288 246.416 35.264C248.976 34.24 251.6 33.728 254.288 33.728C260.944 33.728 266 35.712 269.456 39.68C272.912 43.584 274.64 49.312 274.64 56.864C274.64 57.632 274.608 58.432 274.544 59.264C274.544 60.096 274.512 60.768 274.448 61.28H245.168C245.168 64.224 246.384 66.56 248.816 68.288C251.248 69.952 254.384 70.784 258.224 70.784C260.592 70.784 262.832 70.528 264.944 70.016C267.12 69.504 268.944 68.992 270.416 68.48L272.048 78.56C270 79.264 267.824 79.84 265.52 80.288C263.216 80.8 260.624 81.056 257.744 81.056C253.904 81.056 250.448 80.576 247.376 79.616C244.368 78.592 241.776 77.12 239.6 75.2C237.488 73.216 235.856 70.784 234.704 67.904C233.552 65.024 232.976 61.664 232.976 57.824ZM263.216 53.12C263.216 51.904 263.056 50.752 262.736 49.664C262.416 48.512 261.904 47.488 261.2 46.592C260.496 45.696 259.6 44.992 258.512 44.48C257.424 43.904 256.08 43.616 254.48 43.616C252.944 43.616 251.6 43.872 250.448 44.384C249.36 44.896 248.432 45.6 247.664 46.496C246.96 47.392 246.384 48.416 245.936 49.568C245.552 50.72 245.296 51.904 245.168 53.12H263.216ZM284.048 80V20.576H320.432V30.368H295.856V44.768H317.36V54.56H295.856V80H284.048ZM371.312 57.344C371.312 60.928 370.8 64.192 369.776 67.136C368.752 70.016 367.312 72.512 365.456 74.624C363.6 76.736 361.36 78.368 358.736 79.52C356.176 80.672 353.296 81.248 350.096 81.248C346.896 81.248 343.984 80.672 341.36 79.52C338.8 78.368 336.56 76.736 334.64 74.624C332.784 72.512 331.344 70.016 330.32 67.136C329.296 64.192 328.784 60.928 328.784 57.344C328.784 53.824 329.296 50.624 330.32 47.744C331.408 44.8 332.88 42.304 334.736 40.256C336.656 38.144 338.928 36.544 341.552 35.456C344.176 34.304 347.024 33.728 350.096 33.728C353.232 33.728 356.08 34.304 358.64 35.456C361.264 36.544 363.504 38.144 365.36 40.256C367.28 42.304 368.752 44.8 369.776 47.744C370.8 50.624 371.312 53.824 371.312 57.344ZM340.784 57.44C340.784 61.472 341.488 64.736 342.896 67.232C344.368 69.728 346.704 70.976 349.904 70.976C352.976 70.976 355.28 69.728 356.816 67.232C358.416 64.736 359.216 61.472 359.216 57.44C359.216 53.408 358.48 50.176 357.008 47.744C355.6 45.248 353.296 44 350.096 44C347.024 44 344.688 45.248 343.088 47.744C341.552 50.176 340.784 53.408 340.784 57.44ZM415.952 46.88C415.184 46.688 414.256 46.496 413.168 46.304C412.144 46.112 411.088 45.952 410 45.824C408.912 45.632 407.856 45.504 406.832 45.44C405.808 45.376 404.944 45.344 404.24 45.344C402.576 45.344 400.944 45.44 399.344 45.632C397.744 45.76 396.112 46.048 394.448 46.496V80H382.544V37.856C385.68 36.704 388.88 35.776 392.144 35.072C395.472 34.368 399.344 34.016 403.76 34.016C404.4 34.016 405.296 34.048 406.448 34.112C407.664 34.176 408.944 34.304 410.288 34.496C411.632 34.624 412.976 34.816 414.32 35.072C415.728 35.264 416.976 35.552 418.064 35.936L415.952 46.88ZM454.928 34.4C457.424 34.4 459.472 34.784 461.072 35.552C462.672 36.32 463.92 37.472 464.816 39.008C465.776 40.544 466.416 42.496 466.736 44.864C467.056 47.168 467.216 49.888 467.216 53.024V80H457.616V52.448C457.616 50.656 457.488 49.216 457.232 48.128C457.04 47.04 456.752 46.208 456.368 45.632C456.048 45.056 455.632 44.672 455.12 44.48C454.672 44.288 454.192 44.192 453.68 44.192C453.104 44.192 452.496 44.256 451.856 44.384C451.216 44.448 450.64 44.608 450.128 44.864C450.32 46.08 450.48 47.424 450.608 48.896C450.736 50.368 450.8 52 450.8 53.792V62.816H441.2V52.448C441.2 49.376 440.88 47.232 440.24 46.016C439.664 44.8 438.704 44.192 437.36 44.192C436.976 44.192 436.496 44.224 435.92 44.288C435.408 44.352 434.896 44.448 434.384 44.576V80H424.784V36.608C427.28 35.904 429.744 35.36 432.176 34.976C434.608 34.592 436.752 34.4 438.608 34.4C440.272 34.4 441.744 34.624 443.024 35.072C444.368 35.456 445.52 36.128 446.48 37.088C447.568 36.384 448.848 35.776 450.32 35.264C451.792 34.688 453.328 34.4 454.928 34.4Z" fill="#D0E5E7" fill-opacity="0.78"/>
<path d="M14.8358 77.9491C11.6275 77.9491 8.88704 76.7995 6.61447 74.5002C4.3419 72.2009 3.15214 69.4203 3.0452 66.1585C3.0452 65.6773 3.07193 65.196 3.12541 64.7148C3.17888 64.2335 3.25909 63.7523 3.36603 63.271L10.1035 36.321C10.8521 33.4335 12.3761 31.0941 14.6754 29.3028C16.9747 27.5115 19.5948 26.6158 22.5358 26.6158H53.8171C56.758 26.6158 59.3782 27.5115 61.6775 29.3028C63.9768 31.0941 65.5008 33.4335 66.2494 36.321L72.9869 63.271C73.0938 63.7523 73.1874 64.2469 73.2676 64.7549C73.3478 65.2629 73.3879 65.7575 73.3879 66.2387C73.3879 69.5005 72.2249 72.2677 69.8988 74.5403C67.5728 76.8129 64.7789 77.9491 61.5171 77.9491C59.2712 77.9491 57.1858 77.361 55.2608 76.1846C53.3358 75.0082 51.8921 73.404 50.9296 71.3721L48.6837 66.72C48.4164 66.1853 48.0153 65.7842 47.4806 65.5169C46.9459 65.2495 46.3844 65.1158 45.7962 65.1158H30.5567C29.9685 65.1158 29.407 65.2495 28.8723 65.5169C28.3376 65.7842 27.9365 66.1853 27.6692 66.72L25.4233 71.3721C24.4608 73.404 23.0171 75.0082 21.0921 76.1846C19.1671 77.361 17.0817 77.9491 14.8358 77.9491ZM15.0764 73.1366C16.3598 73.1366 17.5495 72.7891 18.6457 72.0939C19.7419 71.3988 20.5841 70.463 21.1723 69.2866L23.4181 64.7148C24.1133 63.3245 25.0891 62.2417 26.3457 61.4663C27.6023 60.691 29.006 60.3033 30.5567 60.3033H45.7962C47.3469 60.3033 48.7506 60.7044 50.0072 61.5064C51.2638 62.3085 52.2664 63.378 53.015 64.7148L55.2608 69.2866C55.849 70.463 56.6912 71.3988 57.7874 72.0939C58.8836 72.7891 60.0733 73.1366 61.3567 73.1366C63.2817 73.1366 64.9393 72.4816 66.3296 71.1715C67.7198 69.8615 68.4417 68.2439 68.4952 66.3189C68.4952 66.105 68.415 65.4634 68.2546 64.3939L61.5171 37.5241C61.0893 35.7596 60.1669 34.3024 58.7499 33.1528C57.3329 32.0031 55.6886 31.4283 53.8171 31.4283H22.5358C20.6643 31.4283 19.02 31.9898 17.603 33.1127C16.186 34.2356 15.2636 35.7061 14.8358 37.5241L8.09832 64.3939C8.04485 64.6078 7.96464 65.2228 7.8577 66.2387C7.8577 68.1637 8.5662 69.7946 9.98322 71.1314C11.4002 72.4682 13.098 73.1366 15.0764 73.1366ZM42.9889 48.2721C43.6841 48.2721 44.2589 48.0448 44.7134 47.5903C45.1679 47.1358 45.3952 46.561 45.3952 45.8658C45.3952 45.1707 45.1679 44.5958 44.7134 44.1413C44.2589 43.6868 43.6841 43.4596 42.9889 43.4596C42.2938 43.4596 41.719 43.6868 41.2645 44.1413C40.81 44.5958 40.5827 45.1707 40.5827 45.8658C40.5827 46.561 40.81 47.1358 41.2645 47.5903C41.719 48.0448 42.2938 48.2721 42.9889 48.2721ZM49.4056 41.8554C50.1007 41.8554 50.6756 41.6281 51.1301 41.1736C51.5846 40.7191 51.8119 40.1443 51.8119 39.4491C51.8119 38.754 51.5846 38.1792 51.1301 37.7247C50.6756 37.2702 50.1007 37.0429 49.4056 37.0429C48.7105 37.0429 48.1356 37.2702 47.6811 37.7247C47.2266 38.1792 46.9994 38.754 46.9994 39.4491C46.9994 40.1443 47.2266 40.7191 47.6811 41.1736C48.1356 41.6281 48.7105 41.8554 49.4056 41.8554ZM49.4056 54.6887C50.1007 54.6887 50.6756 54.4615 51.1301 54.007C51.5846 53.5524 51.8119 52.9776 51.8119 52.2825C51.8119 51.5873 51.5846 51.0125 51.1301 50.558C50.6756 50.1035 50.1007 49.8762 49.4056 49.8762C48.7105 49.8762 48.1356 50.1035 47.6811 50.558C47.2266 51.0125 46.9994 51.5873 46.9994 52.2825C46.9994 52.9776 47.2266 53.5524 47.6811 54.007C48.1356 54.4615 48.7105 54.6887 49.4056 54.6887ZM55.8223 48.2721C56.5174 48.2721 57.0922 48.0448 57.5468 47.5903C58.0013 47.1358 58.2285 46.561 58.2285 45.8658C58.2285 45.1707 58.0013 44.5958 57.5468 44.1413C57.0922 43.6868 56.5174 43.4596 55.8223 43.4596C55.1271 43.4596 54.5523 43.6868 54.0978 44.1413C53.6433 44.5958 53.416 45.1707 53.416 45.8658C53.416 46.561 53.6433 47.1358 54.0978 47.5903C54.5523 48.0448 55.1271 48.2721 55.8223 48.2721ZM26.9473 53.4856C27.5355 53.4856 28.0167 53.2985 28.391 52.9241C28.7653 52.5498 28.9525 52.0686 28.9525 51.4804V47.871H32.5619C33.1501 47.871 33.6313 47.6839 34.0056 47.3096C34.3799 46.9353 34.5671 46.454 34.5671 45.8658C34.5671 45.2776 34.3799 44.7964 34.0056 44.4221C33.6313 44.0478 33.1501 43.8606 32.5619 43.8606H28.9525V40.2512C28.9525 39.663 28.7653 39.1818 28.391 38.8075C28.0167 38.4332 27.5355 38.246 26.9473 38.246C26.3591 38.246 25.8778 38.4332 25.5035 38.8075C25.1292 39.1818 24.9421 39.663 24.9421 40.2512V43.8606H21.3327C20.7445 43.8606 20.2633 44.0478 19.8889 44.4221C19.5146 44.7964 19.3275 45.2776 19.3275 45.8658C19.3275 46.454 19.5146 46.9353 19.8889 47.3096C20.2633 47.6839 20.7445 47.871 21.3327 47.871H24.9421V51.4804C24.9421 52.0686 25.1292 52.5498 25.5035 52.9241C25.8778 53.2985 26.3591 53.4856 26.9473 53.4856Z" fill="#85B1CA" fill-opacity="0.8"/>
</svg>
